<?xml version="1.0" encoding="UTF-8"?>
<svg id="Layer_1" data-name="Layer 1" xmlns="http://www.w3.org/2000/svg" viewBox="0 0 96 96">
  <defs>
    <style>
      .cls-1 {
        fill: #191616;
      }

      .cls-1, .cls-2 {
        stroke-width: 0px;
      }

      .cls-2 {
        fill: #fff;
      }
    </style>
  </defs>
  <g>
    <path class="cls-1" d="M63.86,7.77l-32.8-.45c-4.98-.07-9.06,3.95-9.06,8.94v48.56c0,8.8,11.37,12.3,16.33,5.04l32.8-48.11c4.01-5.89-.14-13.88-7.26-13.98Z"/>
    <path class="cls-2" d="M31.06,76.29c-1.15,0-2.32-.17-3.49-.53-4.9-1.51-8.07-5.8-8.07-10.93V16.26c0-3.08,1.21-5.98,3.41-8.14,2.2-2.17,5.14-3.36,8.19-3.29l32.8.45c4.28.06,8.02,2.36,9.99,6.16,1.98,3.8,1.71,8.18-.7,11.72l-32.8,48.11c-2.2,3.23-5.65,5.02-9.34,5.02ZM30.94,9.82c-1.7,0-3.31.66-4.52,1.86-1.24,1.22-1.92,2.85-1.92,4.58v48.56c0,3.5,2.35,5.48,4.54,6.15,2.2.68,5.25.37,7.22-2.53l32.8-48.11c1.36-1.99,1.5-4.46.39-6.6s-3.22-3.44-5.63-3.47l-32.8-.45s-.06,0-.09,0Z"/>
  </g>
  <g>
    <path class="cls-1" d="M63.86,89l-32.8.45c-4.98.07-9.06-3.95-9.06-8.94V31.95c0-8.8,11.37-12.3,16.33-5.04l32.8,48.11c4.01,5.89-.14,13.88-7.26,13.98Z"/>
    <path class="cls-2" d="M30.94,91.95c-3.02,0-5.87-1.17-8.03-3.3-2.2-2.17-3.41-5.06-3.41-8.14V31.95c0-5.13,3.17-9.42,8.07-10.93,4.9-1.52,9.93.25,12.82,4.49l32.8,48.11c2.41,3.54,2.67,7.92.7,11.72-1.98,3.8-5.71,6.1-9.99,6.16l-32.8.45c-.05,0-.11,0-.16,0ZM31.04,25.5c-.71,0-1.39.11-2,.3-2.2.68-4.54,2.65-4.54,6.15v48.56c0,1.74.68,3.37,1.92,4.58,1.22,1.2,2.82,1.86,4.52,1.86.03,0,.06,0,.09,0l32.8-.45c2.41-.03,4.51-1.33,5.63-3.47,1.11-2.14.96-4.61-.39-6.6L36.26,28.32c-1.42-2.08-3.4-2.83-5.22-2.83Z"/>
  </g>
</svg>